<svg width="75" height="75" viewBox="0 0 75 75" fill="none" xmlns="http://www.w3.org/2000/svg">
<rect width="75" height="75" fill="white"/>
<path d="M58.0614 64.0261H15.0783C15.0783 64.0261 15.0783 64.0261 14.9804 64.0261C6.85379 63.5365 0 55.8995 0 47.3812C0 42.094 2.74151 37.0026 7.14752 34.1632C6.85379 33.1841 6.75587 32.205 6.75587 31.1279C6.75587 24.9595 11.7493 19.9661 17.9178 19.9661C18.8969 19.9661 19.876 20.064 20.8551 20.3577C24.4778 13.406 31.8211 9 39.654 9C50.4243 9 59.3342 16.8329 60.705 27.4073C68.9295 29.1697 75 36.9047 75 45.5209C75 55.1162 67.4608 63.4386 58.0614 64.0261ZM15.0783 61.97H57.9634C66.188 61.3825 72.9439 54.0392 72.9439 45.5209C72.9439 37.4922 67.1671 30.5405 59.6279 29.2676C59.1384 29.1697 58.8446 28.7781 58.7467 28.3864C57.8655 18.4974 49.641 11.0561 39.654 11.0561C32.2128 11.0561 25.4569 15.3642 22.3238 22.0222C22.1279 22.5117 21.5405 22.7076 21.0509 22.5117C20.0718 22.1201 18.9948 21.9243 17.9178 21.9243C12.9243 21.9243 8.81201 26.0366 8.81201 31.03C8.81201 32.107 9.00783 33.1841 9.39948 34.1632C9.5953 34.6527 9.39948 35.1423 8.90992 35.436C4.69974 37.8838 2.05614 42.4856 2.05614 47.3812C2.05614 54.9204 8.02872 61.5783 15.0783 61.97Z" fill="black"/>
</svg>
