<svg width="75" height="75" viewBox="0 0 75 75" fill="none" xmlns="http://www.w3.org/2000/svg">
<rect width="75" height="75" fill="white"/>
<path d="M29.5 24.9L15.4 42.7C14.1 41.9 12.5 41.4 10.8 41.4C6 41.4 2 45.3 2 50.2C2 55.1 5.9 59 10.8 59C15.7 59 19.6 55.1 19.6 50.2C19.6 47.8 18.6 45.6 17 44L31.1 26.1C32.8 27.2 34.7 27.9 36.8 28.1V53.1C32.4 53.6 29 57.3 29 61.8C29 66.6 32.9 70.6 37.8 70.6C42.7 70.6 46.6 66.7 46.6 61.8C46.6 57.3 43.2 53.6 38.8 53.1V28.1C40.8 27.9 42.8 27.3 44.4 26.2L58.5 44.1C57 45.7 56 47.8 56 50.2C56 55 59.9 59 64.8 59C69.7 59 73.6 55.1 73.6 50.2C73.6 45.3 69.7 41.4 64.8 41.4C63.1 41.4 61.4 41.9 60.1 42.8L46 25C48.4 22.8 49.9 19.6 49.9 16.1C49.9 9.4 44.5 4 37.8 4C31.1 4 25.7 9.4 25.7 16.1C25.7 19.5 27.1 22.6 29.5 24.9ZM17.5 50.2C17.5 53.9 14.5 56.9 10.8 56.9C7.1 56.9 4.1 53.9 4.1 50.2C4.1 46.5 7.1 43.5 10.8 43.5C14.5 43.5 17.5 46.5 17.5 50.2ZM64.8 43.4C68.5 43.4 71.5 46.4 71.5 50.1C71.5 53.8 68.5 56.8 64.8 56.8C61.1 56.8 58.1 53.8 58.1 50.1C58.1 46.4 61.1 43.4 64.8 43.4ZM44.5 61.8C44.5 65.5 41.5 68.5 37.8 68.5C34.1 68.5 31.1 65.5 31.1 61.8C31.1 58.1 34.1 55.1 37.8 55.1C41.5 55.1 44.5 58.1 44.5 61.8ZM37.8 5.9C43.4 5.9 47.9 10.4 47.9 16C47.9 21.6 43.4 26.1 37.8 26.1C32.2 26.1 27.7 21.6 27.7 16C27.7 10.4 32.2 5.9 37.8 5.9Z" fill="black"/>
</svg>
