<svg width="75" height="75" viewBox="0 0 75 75" fill="none" xmlns="http://www.w3.org/2000/svg">
<rect width="75" height="75" fill="white"/>
<path d="M20 53.6429C18.8571 53.6429 17.7857 54.0714 17 54.9286C16.2143 55.7143 15.7143 56.7857 15.7143 57.9286C15.7143 59.0714 16.1429 60.1429 17 60.9286C17.8571 61.7857 18.9286 62.2143 20 62.2143C21.0714 62.2143 22.2143 61.7857 23 60.9286C23.7857 60.1429 24.2857 59.0714 24.2857 57.9286C24.2857 56.7857 23.8571 55.7143 23 54.9286C22.2143 54.1429 21.1429 53.6429 20 53.6429ZM21 59C20.4286 59.5714 19.5714 59.5714 19 59C18.7143 58.7143 18.5714 58.3571 18.5714 58C18.5714 57.6429 18.7143 57.2857 19 57C19.2857 56.7143 19.6429 56.5714 20 56.5714C20.3571 56.5714 20.7143 56.7143 21 57C21.2857 57.2857 21.4286 57.6429 21.4286 58C21.4286 58.3571 21.2857 58.7143 21 59ZM66.5 11.5L59.4286 4.42857C58.8571 3.85714 58 3.85714 57.4286 4.42857C56.8571 5 56.8571 5.85714 57.4286 6.42857L63.5 12.5L57.9286 18.0714L51.8571 12C51.2857 11.4286 50.4286 11.4286 49.8571 12C49.2857 12.5714 49.2857 13.4286 49.8571 14L55.9286 20.0714L31.0714 44.8571C28.6429 42.9286 25.7143 41.8571 22.5714 41.8571C18.9286 41.8571 15.5714 43.2857 13 45.8571C10.4286 48.4286 9 51.8571 9 55.4286C9 59 10.4286 62.4286 13 65C15.6429 67.6429 19.1429 69 22.5714 69C26.0714 69 29.5 67.6429 32.1429 65C34.7143 62.4286 36.1429 59 36.1429 55.4286C36.1429 52.2857 35.0714 49.2857 33.1429 46.9286L66.5 13.5C67 12.9286 67 12.0714 66.5 11.5ZM30.1429 63C28.1429 65 25.4286 66.1429 22.5714 66.1429C19.7143 66.1429 17 65 15 63C13 61 11.8571 58.2857 11.8571 55.4286C11.8571 52.5714 13 49.8571 15 47.8571C17 45.8571 19.7143 44.7143 22.5714 44.7143C25.4286 44.7143 28.1429 45.8571 30.1429 47.8571C32.1429 49.8571 33.2857 52.5714 33.2857 55.4286C33.2857 58.2857 32.1429 61 30.1429 63Z" fill="black"/>
</svg>
