<svg width="75" height="75" viewBox="0 0 75 75" fill="none" xmlns="http://www.w3.org/2000/svg">
<rect width="75" height="75" fill="white"/>
<path d="M64 10C64 9.4 63.5 9 63 9H1C0.4 9 0 9.5 0 10V53.9C0 54.5 0.5 54.9 1 54.9H31V64.3H18.7C18.1 64.3 17.7 64.8 17.7 65.3C17.7 65.8 18.2 66.3 18.7 66.3H45.3C45.9 66.3 46.3 65.8 46.3 65.3C46.3 64.8 45.8 64.3 45.3 64.3H33V54.9H46.8C47.4 54.9 47.8 54.4 47.8 53.9C47.8 53.4 47.3 52.9 46.8 52.9H2V11H62V29.4H52.4C51.8 29.4 51.4 29.9 51.4 30.4V65.3C51.4 65.9 51.9 66.3 52.4 66.3H73.5C74.1 66.3 74.5 65.8 74.5 65.3V30.4C74.5 29.8 74 29.4 73.5 29.4H63.9V10H64ZM72.6 31.4V64.3H53.5V31.4H72.6Z" fill="black"/>
</svg>
