<svg width="75" height="75" viewBox="0 0 75 75" fill="none" xmlns="http://www.w3.org/2000/svg">
<rect width="75" height="75" fill="white"/>
<path d="M69.5 43.5C71.1 43.2 72.3 41.8 72.3 40.2V34C72.3 32.3 71.1 30.9 69.5 30.7L64 29.8C63.4 27.8 62.6 25.9 61.6 24.1L64.8 19.5C65.8 18.2 65.6 16.3 64.4 15.2L60.2 10.8C59.6 10.2 58.7 9.8 57.8 9.8C57.1 9.8 56.4 10 55.8 10.4L51.2 13.7C49.3 12.7 47.4 11.9 45.3 11.3L44.4 5.8C44.1 4.2 42.7 3 41.1 3H34.9C33.2 3 31.8 4.2 31.6 5.8L30.7 11.4C28.7 12 26.8 12.8 25 13.8L20.5 10.6C19.9 10.2 19.2 10 18.5 10C17.6 10 16.7 10.4 16.1 11L11.7 15.4C10.5 16.6 10.4 18.4 11.3 19.7L14.6 24.3C13.6 26.1 12.8 28 12.3 30L6.8 30.9C5.2 31.2 4 32.6 4 34.2V40.4C4 42.1 5.2 43.5 6.8 43.7L12.4 44.6C13 46.6 13.8 48.5 14.8 50.3L11.6 54.8C10.6 56.1 10.8 58 12 59.1L16.4 63.5C17 64.1 17.9 64.5 18.8 64.5C19.5 64.5 20.2 64.3 20.8 63.9L25.4 60.6C27.2 61.6 29 62.3 30.9 62.9L31.8 68.4C32.1 70 33.5 71.2 35.1 71.2H41.3C43 71.2 44.4 70 44.6 68.4L45.5 62.9C47.5 62.3 49.4 61.5 51.2 60.5L55.8 63.7C56.4 64.1 57.1 64.3 57.8 64.3C58.7 64.3 59.6 63.9 60.2 63.3L64.6 58.9C65.8 57.7 65.9 55.9 65 54.6L61.6 50.1C62.6 48.3 63.4 46.4 64 44.4L69.5 43.5ZM62.2 43.3C61.6 45.5 60.7 47.7 59.5 49.7C59.3 50 59.3 50.5 59.5 50.8L63.1 55.9C63.5 56.4 63.4 57.2 63 57.6L58.6 62C58.3 62.3 58 62.4 57.6 62.4C57.3 62.4 57.1 62.3 56.8 62.2L51.7 58.6C51.4 58.4 50.9 58.3 50.6 58.6C48.6 59.8 46.4 60.7 44.2 61.2C43.8 61.3 43.5 61.6 43.5 62L42.5 68.2C42.4 68.8 41.8 69.3 41.2 69.3H35C34.3 69.3 33.8 68.8 33.7 68.2L32.7 62C32.6 61.6 32.3 61.3 32 61.2C29.8 60.6 27.7 59.8 25.8 58.6C25.6 58.5 25.5 58.5 25.3 58.5C25.1 58.5 24.9 58.6 24.7 58.7L19.6 62.3C19.1 62.7 18.3 62.6 17.9 62.2L13.5 57.8C13 57.3 13 56.6 13.4 56.1L17 51C17.2 50.7 17.3 50.2 17 49.9C15.8 47.9 14.9 45.8 14.3 43.5C14.2 43.1 13.9 42.8 13.5 42.8L7.2 41.7C6.6 41.6 6.1 41 6.1 40.4V34.2C6.1 33.5 6.6 33 7.2 32.9L13.3 31.9C13.7 31.8 14 31.5 14.1 31.1C14.7 28.9 15.5 26.7 16.7 24.7C16.9 24.4 16.9 23.9 16.6 23.6L13 18.5C12.6 18 12.7 17.2 13.1 16.8L17.5 12.4C18 11.9 18.7 11.9 19.2 12.3L24.3 15.9C24.6 16.1 25.1 16.2 25.4 15.9C27.4 14.7 29.5 13.8 31.8 13.2C32.2 13.1 32.5 12.8 32.5 12.4L33.6 6.2C33.7 5.6 34.3 5.1 34.9 5.1H41.1C41.8 5.1 42.3 5.6 42.4 6.2L43.4 12.3C43.5 12.7 43.8 13 44.2 13.1C46.5 13.7 48.7 14.6 50.7 15.8C51 16 51.5 16 51.8 15.8L56.9 12.2C57.4 11.8 58.2 11.9 58.6 12.3L63 16.7C63.5 17.2 63.5 17.9 63.1 18.4L59.5 23.5C59.3 23.8 59.2 24.3 59.5 24.6C60.7 26.6 61.6 28.8 62.1 31C62.2 31.4 62.5 31.7 62.9 31.7L69.1 32.7C69.7 32.8 70.2 33.4 70.2 34V40.2C70.2 40.9 69.7 41.4 69.1 41.5L62.9 42.5C62.6 42.6 62.3 42.9 62.2 43.3ZM38.2 22C29.9 22 23.1 28.8 23.1 37.1C23.1 45.4 29.9 52.2 38.2 52.2C46.5 52.2 53.3 45.4 53.3 37.1C53.3 28.8 46.5 22 38.2 22ZM38.2 50.2C31 50.2 25.1 44.3 25.1 37.1C25.1 29.9 31 24 38.2 24C45.4 24 51.3 29.9 51.3 37.1C51.3 44.3 45.4 50.2 38.2 50.2Z" fill="black"/>
</svg>
